<svg width="63" height="61" viewBox="0 0 63 61" fill="none" xmlns="http://www.w3.org/2000/svg">
<path d="M20.7591 48.7256C20.7591 48.9759 20.4713 49.1761 20.1084 49.1761C19.6955 49.2136 19.4077 49.0134 19.4077 48.7256C19.4077 48.4754 19.6955 48.2752 20.0583 48.2752C20.4337 48.2376 20.7591 48.4378 20.7591 48.7256ZM16.8675 48.1626C16.7799 48.4128 17.0302 48.7006 17.4056 48.7757C17.7309 48.9008 18.1063 48.7757 18.1814 48.5254C18.2565 48.2752 18.0187 47.9874 17.6433 47.8748C17.318 47.7872 16.9551 47.9123 16.8675 48.1626ZM22.3983 47.9498C22.0354 48.0374 21.7851 48.2752 21.8227 48.563C21.8602 48.8132 22.1856 48.9759 22.5609 48.8883C22.9238 48.8007 23.1741 48.563 23.1365 48.3127C23.099 48.075 22.7612 47.9123 22.3983 47.9498ZM30.6318 0C13.2763 0 0 13.1762 0 30.5317C0 44.4087 8.73408 56.2835 21.2095 60.4628C22.8112 60.7506 23.3743 59.7621 23.3743 58.9488C23.3743 58.173 23.3368 53.8935 23.3368 51.2658C23.3368 51.2658 14.5777 53.1427 12.7382 47.5369C12.7382 47.5369 11.3118 43.8956 9.25962 42.9571C9.25962 42.9571 6.39415 40.9926 9.45983 41.0301C9.45983 41.0301 12.5756 41.2804 14.2899 44.2585C17.0302 49.0885 21.6225 47.6996 23.4118 46.8737C23.6996 44.8716 24.513 43.4827 25.4139 42.6568C18.4191 41.881 11.3618 40.8675 11.3618 28.83C11.3618 25.3889 12.3128 23.6621 14.3149 21.4598C13.9895 20.6465 12.9259 17.293 14.6402 12.9635C17.2554 12.1501 23.2742 16.342 23.2742 16.342C25.7768 15.6413 28.4671 15.2784 31.1324 15.2784C33.7976 15.2784 36.4879 15.6413 38.9905 16.342C38.9905 16.342 45.0093 12.1376 47.6245 12.9635C49.3388 17.3055 48.2752 20.6465 47.9498 21.4598C49.9519 23.6746 51.1782 25.4014 51.1782 28.83C51.1782 40.905 43.808 41.8685 36.8133 42.6568C37.9645 43.6454 38.9405 45.5223 38.9405 48.4629C38.9405 52.6797 38.9029 57.8977 38.9029 58.9237C38.9029 59.7371 39.4785 60.7256 41.0677 60.4378C53.5807 56.2835 62.0645 44.4087 62.0645 30.5317C62.0645 13.1762 47.9874 0 30.6318 0ZM12.1626 43.1574C12 43.2825 12.0375 43.5703 12.2502 43.808C12.4504 44.0082 12.7382 44.0958 12.9009 43.9332C13.0636 43.808 13.026 43.5202 12.8133 43.2825C12.6131 43.0823 12.3253 42.9947 12.1626 43.1574ZM10.8112 42.1438C10.7236 42.3065 10.8488 42.5067 11.099 42.6318C11.2992 42.7569 11.5495 42.7194 11.6371 42.5442C11.7247 42.3815 11.5996 42.1813 11.3493 42.0562C11.099 41.9811 10.8988 42.0187 10.8112 42.1438ZM14.8655 46.5984C14.6652 46.7611 14.7403 47.1365 15.0281 47.3742C15.3159 47.662 15.6788 47.6996 15.8415 47.4994C16.0041 47.3367 15.9291 46.9613 15.6788 46.7236C15.4035 46.4358 15.0281 46.3982 14.8655 46.5984ZM13.439 44.759C13.2388 44.8841 13.2388 45.2095 13.439 45.4973C13.6392 45.7851 13.977 45.9102 14.1397 45.7851C14.3399 45.6224 14.3399 45.2971 14.1397 45.0093C13.9645 44.7215 13.6392 44.5963 13.439 44.759Z" fill="#FFCC4D"/>
</svg>
