<svg width="63" height="63" viewBox="0 0 63 63" fill="none" xmlns="http://www.w3.org/2000/svg">
<path d="M31.0392 15.6301C22.2331 15.6301 15.1302 22.7331 15.1302 31.5391C15.1302 40.3451 22.2331 47.4481 31.0392 47.4481C39.8452 47.4481 46.9482 40.3451 46.9482 31.5391C46.9482 22.7331 39.8452 15.6301 31.0392 15.6301ZM31.0392 41.882C25.3485 41.882 20.6962 37.2437 20.6962 31.5391C20.6962 25.8346 25.3346 21.1962 31.0392 21.1962C36.7437 21.1962 41.3821 25.8346 41.3821 31.5391C41.3821 37.2437 36.7299 41.882 31.0392 41.882ZM51.3097 14.9794C51.3097 17.0424 49.6481 18.6901 47.5989 18.6901C45.5359 18.6901 43.8882 17.0286 43.8882 14.9794C43.8882 12.9302 45.5497 11.2686 47.5989 11.2686C49.6481 11.2686 51.3097 12.9302 51.3097 14.9794ZM61.8464 18.7455C61.6111 13.7748 60.4757 9.37174 56.8342 5.7441C53.2066 2.11646 48.8035 0.981095 43.8328 0.731868C38.7098 0.441103 23.3547 0.441103 18.2317 0.731868C13.2748 0.967249 8.8718 2.10262 5.23031 5.73026C1.58882 9.3579 0.467301 13.7609 0.218074 18.7316C-0.0726913 23.8546 -0.0726913 39.2098 0.218074 44.3328C0.453455 49.3035 1.58882 53.7065 5.23031 57.3341C8.8718 60.9618 13.261 62.0971 18.2317 62.3464C23.3547 62.6371 38.7098 62.6371 43.8328 62.3464C48.8035 62.111 53.2066 60.9756 56.8342 57.3341C60.4618 53.7065 61.5972 49.3035 61.8464 44.3328C62.1372 39.2098 62.1372 23.8685 61.8464 18.7455ZM55.2281 49.8296C54.1481 52.5434 52.0573 54.6342 49.3297 55.728C45.2451 57.348 35.553 56.9741 31.0392 56.9741C26.5254 56.9741 16.8194 57.3341 12.7487 55.728C10.0349 54.648 7.94412 52.5573 6.85029 49.8296C5.23031 45.7451 5.60415 36.0529 5.60415 31.5391C5.60415 27.0253 5.24416 17.3193 6.85029 13.2486C7.93027 10.5348 10.021 8.44407 12.7487 7.35023C16.8332 5.73026 26.5254 6.1041 31.0392 6.1041C35.553 6.1041 45.259 5.7441 49.3297 7.35023C52.0435 8.43022 54.1342 10.521 55.2281 13.2486C56.848 17.3332 56.4742 27.0253 56.4742 31.5391C56.4742 36.0529 56.848 45.7589 55.2281 49.8296Z" fill="#FFCC4D"/>
</svg>
