<svg width="63" height="50" viewBox="0 0 63 50" fill="none" xmlns="http://www.w3.org/2000/svg">
<path d="M0 6.2709C0 4.62485 0.653892 3.04622 1.81783 1.88228C2.98176 0.718345 4.5604 0.0644531 6.20645 0.0644531H55.8581C57.5041 0.0644531 59.0827 0.718345 60.2467 1.88228C61.4106 3.04622 62.0645 4.62485 62.0645 6.2709V43.5096C62.0645 45.1557 61.4106 46.7343 60.2467 47.8982C59.0827 49.0622 57.5041 49.7161 55.8581 49.7161H6.20645C4.5604 49.7161 2.98176 49.0622 1.81783 47.8982C0.653892 46.7343 0 45.1557 0 43.5096V6.2709ZM10.9202 6.2709L31.0323 23.8693L51.1443 6.2709H10.9202ZM55.8581 10.3951L33.0773 30.3302C32.5114 30.826 31.7846 31.0994 31.0323 31.0994C30.2799 31.0994 29.5531 30.826 28.9872 30.3302L6.20645 10.3951V43.5096H55.8581V10.3951Z" fill="#FFCC4D"/>
</svg>
