<svg width="69" height="82" viewBox="0 0 69 82" fill="none" xmlns="http://www.w3.org/2000/svg">
<path d="M65.06 34.03C65.06 58.1644 34.03 78.8511 34.03 78.8511C34.03 78.8511 3 58.1644 3 34.03C3 25.8003 6.26922 17.9077 12.0885 12.0885C17.9077 6.26922 25.8003 3 34.03 3C42.2597 3 50.1523 6.26922 55.9715 12.0885C61.7908 17.9077 65.06 25.8003 65.06 34.03Z" stroke="#FFCC4D" stroke-width="6" stroke-linecap="round" stroke-linejoin="round"/>
<path d="M34.03 44.3734C39.7424 44.3734 44.3733 39.7425 44.3733 34.03C44.3733 28.3176 39.7424 23.6867 34.03 23.6867C28.3175 23.6867 23.6866 28.3176 23.6866 34.03C23.6866 39.7425 28.3175 44.3734 34.03 44.3734Z" stroke="#FFCC4D" stroke-width="6" stroke-linecap="round" stroke-linejoin="round"/>
</svg>
