<svg width="1318" height="819" viewBox="0 0 1318 819" fill="none" xmlns="http://www.w3.org/2000/svg">
<g opacity="0.65">
<path d="M1258.82 574.314L1223.02 544.857L1183.94 569.806L1200.89 526.652L1165.09 497.194L1211.37 499.98L1228.32 456.826L1239.97 501.702L1286.25 504.488L1247.17 529.438L1258.82 574.314Z" fill="#FFCC4D"/>
<path d="M1022.33 437.438L1016.67 421.044L999.327 421.367L1013.17 410.912L1007.5 394.519L1021.72 404.451L1035.56 393.996L1030.51 410.589L1044.73 420.522L1027.39 420.845L1022.33 437.438Z" fill="#FFCC4D"/>
<path d="M816.987 579.783L800.198 568.303L784.092 580.723L789.822 561.208L773.033 549.727L793.363 549.147L799.093 529.632L805.928 548.788L826.259 548.207L810.152 560.627L816.987 579.783Z" fill="#FFCC4D"/>
<path d="M995.286 633.038L990.746 625.135L981.828 627.011L987.941 620.252L983.401 612.349L991.719 616.074L997.831 609.315L996.859 618.376L1005.18 622.101L996.258 623.976L995.286 633.038Z" fill="#FFCC4D"/>
<path d="M933.903 583.76L925.691 580.064L919.637 586.732L920.615 577.779L912.402 574.083L921.219 572.246L922.197 563.293L926.668 571.111L935.485 569.274L929.432 575.942L933.903 583.76Z" fill="#FFAC33"/>
<path d="M1124.08 560.467L1116.64 556.011L1110.1 561.71L1112.04 553.257L1104.6 548.801L1113.24 548.033L1115.18 539.58L1118.58 547.558L1127.21 546.79L1120.68 552.489L1124.08 560.467Z" fill="#FFCC4D"/>
<path d="M754.939 528.866L798.78 447.533L734.975 380.705L825.875 397.267L869.715 315.934L882.054 407.503L972.953 424.064L889.679 464.095L902.017 555.663L838.213 488.835L754.939 528.866Z" fill="#FFAC33"/>
<path d="M1029.28 569.704L1003.79 546.67L974.007 563.796L988.037 532.434L962.545 509.4L996.708 513.052L1010.74 481.69L1017.82 515.308L1051.98 518.96L1022.2 536.086L1029.28 569.704Z" fill="#FFAC33"/>
<path d="M820.034 649.658L821.849 632.408L806.004 625.352L822.97 621.747L824.784 604.497L833.456 619.519L850.422 615.914L838.815 628.803L847.486 643.825L831.641 636.769L820.034 649.658Z" fill="#FFAC33"/>
<path d="M1209.68 658.799L1192.89 647.319L1176.79 659.739L1182.52 640.224L1165.73 628.743L1186.06 628.163L1191.79 608.648L1198.62 627.804L1218.96 627.223L1202.85 639.643L1209.68 658.799Z" fill="#FFAC33"/>
<path d="M1104.41 399.143L1101.15 389.786L1091.25 389.993L1099.14 384.003L1095.88 374.646L1104.02 380.3L1111.91 374.309L1109.04 383.795L1117.18 389.449L1107.27 389.657L1104.41 399.143Z" fill="#FFAC33"/>
<path d="M948.842 361.512L932.053 350.031L915.947 362.451L921.677 342.936L904.888 331.456L925.218 330.875L930.949 311.36L937.783 330.516L958.114 329.936L942.008 342.356L948.842 361.512Z" fill="#FFCC4D"/>
<path d="M1105 684.349L1102.81 670.945L1089.39 668.883L1101.46 662.661L1099.28 649.258L1108.92 658.816L1121 652.595L1114.89 664.724L1124.53 674.282L1111.11 672.22L1105 684.349Z" fill="#FFCC4D"/>
<path d="M1101.84 494.664L1096.88 469.953L1071.85 467.032L1093.82 454.681L1088.86 429.97L1107.39 447.047L1129.36 434.695L1118.85 457.601L1137.39 474.678L1112.35 471.758L1101.84 494.664Z" fill="#FFAC33"/>
<path d="M929.439 725.354L936.381 687.493L902.517 669.191L940.671 664.093L947.613 626.232L964.251 660.943L1002.4 655.845L974.534 682.395L991.172 717.106L957.309 698.804L929.439 725.354Z" fill="#FFAC33"/>
<path d="M668.756 485.921L675.698 448.06L641.835 429.758L679.988 424.66L686.93 386.798L703.569 421.509L741.722 416.412L713.852 442.962L730.49 477.673L696.627 459.371L668.756 485.921Z" fill="#FFAC33"/>
<path d="M1060.08 639.694L1054.41 623.301L1037.07 623.624L1050.91 613.169L1045.25 596.776L1059.47 606.708L1073.31 596.253L1068.25 612.846L1082.47 622.779L1065.13 623.101L1060.08 639.694Z" fill="#FFAC33"/>
<path d="M943.664 83.3424L926.874 71.8622L910.768 84.2821L916.498 64.767L899.709 53.2868L920.04 52.706L925.77 33.1909L932.605 52.3471L952.935 51.7663L936.829 64.1862L943.664 83.3424Z" fill="#FFCC4D"/>
<path d="M1007.18 88.2234L1002.64 80.3212L993.726 82.1967L999.839 75.4373L995.299 67.5351L1003.62 71.2598L1009.73 64.5005L1008.76 73.5618L1017.07 77.2866L1008.16 79.1621L1007.18 88.2234Z" fill="#FFAC33"/>
<path d="M1059.78 143.023L1051.57 139.327L1045.51 145.995L1046.49 137.042L1038.28 133.346L1047.1 131.509L1048.07 122.556L1052.54 130.374L1061.36 128.537L1055.31 135.205L1059.78 143.023Z" fill="#FFAC33"/>
<path d="M1004.08 259.039L995.87 255.343L989.817 262.011L990.794 253.059L982.582 249.362L991.398 247.525L992.376 238.572L996.847 246.39L1005.66 244.553L999.611 251.222L1004.08 259.039Z" fill="#FFCC4D"/>
<path d="M963.661 151.065L965.475 133.815L949.63 126.759L966.596 123.154L968.41 105.904L977.082 120.926L994.048 117.321L982.441 130.21L991.113 145.232L975.268 138.176L963.661 151.065Z" fill="#FFAC33"/>
<path d="M1079.34 95.6616L1073.67 79.2681L1056.33 79.5909L1070.17 69.1363L1064.51 52.7428L1078.73 62.675L1092.57 52.2204L1087.51 68.8135L1101.73 78.7457L1084.39 79.0685L1079.34 95.6616Z" fill="#FFCC4D"/>
<path d="M1080.46 260.287L1078.9 251.308L1069.88 250.018L1077.94 245.759L1076.37 236.781L1082.92 243.127L1090.97 238.868L1086.96 247.049L1093.5 253.395L1084.48 252.106L1080.46 260.287Z" fill="#FFAC33"/>
<path d="M1035.58 204.822L1029.13 198.539L1021.16 202.733L1025.14 194.655L1018.69 188.371L1027.61 189.663L1031.59 181.585L1033.11 190.461L1042.03 191.752L1034.06 195.947L1035.58 204.822Z" fill="#FFCC4D"/>
<path d="M1226.31 236.176L1220.85 229.442L1212.75 232.56L1217.47 225.281L1212 218.547L1220.38 220.782L1225.1 213.503L1225.56 222.163L1233.94 224.398L1225.85 227.515L1226.31 236.176Z" fill="#FFCC4D"/>
<path d="M1134.08 212.413L1118.01 182.046L1084.16 187.944L1108.08 163.278L1092.01 132.911L1122.86 148.033L1146.78 123.366L1141.93 157.379L1172.78 172.502L1138.93 178.4L1134.08 212.413Z" fill="#FFAC33"/>
<path d="M754.112 280.894L738.043 250.527L704.196 256.425L728.111 231.759L712.042 201.392L742.892 216.514L766.807 191.848L761.958 225.86L792.807 240.983L758.961 246.881L754.112 280.894Z" fill="#FFAC33"/>
<path d="M922.701 231.55L930.309 215.963L917.836 203.91L935.011 206.329L942.62 190.742L945.627 207.824L962.802 210.243L947.485 218.382L950.492 235.464L938.018 223.412L922.701 231.55Z" fill="#FFAC33"/>
<path d="M1234.52 352.039L1222.67 335.506L1203.29 341.664L1215.35 325.288L1203.5 308.756L1222.81 315.168L1234.87 298.792L1234.74 319.131L1254.04 325.543L1234.65 331.701L1234.52 352.039Z" fill="#FFAC33"/>
<path d="M1135.71 356.235L1138.24 342.893L1126.33 336.361L1139.8 334.647L1142.34 321.304L1148.13 333.587L1161.6 331.873L1151.71 341.178L1157.5 353.462L1145.6 346.93L1135.71 356.235Z" fill="#FFCC4D"/>
<path d="M996.654 350.803L1016.13 317.604L990.58 288.818L1028.17 297.086L1047.65 263.886L1051.41 302.195L1089 310.463L1053.73 325.872L1057.48 364.181L1031.93 335.395L996.654 350.803Z" fill="#FFAC33"/>
<path d="M1139.06 288.717L1139.35 271.374L1122.95 265.742L1139.53 260.655L1139.81 243.313L1149.78 257.512L1166.36 252.425L1155.93 266.287L1165.9 280.486L1149.49 274.854L1139.06 288.717Z" fill="#FFAC33"/>
<path d="M1159.44 407.651L1172.01 395.692L1164.52 380.048L1179.77 388.301L1192.33 376.342L1189.2 393.402L1204.46 401.655L1187.26 403.945L1184.13 421.004L1176.64 405.361L1159.44 407.651Z" fill="#FFAC33"/>
<path d="M726.653 620.592L736.467 619.231L738.206 609.476L742.533 618.39L752.347 617.029L745.207 623.899L749.534 632.812L740.794 628.144L733.654 635.014L735.393 625.26L726.653 620.592Z" fill="#FFCC4D"/>
<path d="M867.509 624.335L876.62 624.564L879.654 615.971L882.25 624.706L891.361 624.936L883.855 630.105L886.452 638.841L879.216 633.3L871.711 638.469L874.745 629.876L867.509 624.335Z" fill="#FFCC4D"/>
<path d="M640.383 672.441L648.057 668.402L646.587 659.855L652.801 665.905L660.475 661.866L656.64 669.645L662.854 675.696L654.271 674.452L650.436 682.231L648.966 673.684L640.383 672.441Z" fill="#FFCC4D"/>
<path d="M747.33 757.411L765.865 749.036L763.628 728.821L777.32 743.86L795.855 735.486L785.783 753.155L799.475 768.195L779.557 764.076L769.485 781.746L767.248 761.53L747.33 757.411Z" fill="#FFCC4D"/>
<path d="M762.591 659.692L775.178 664.792L783.918 654.397L782.957 667.944L795.544 673.043L782.364 676.316L781.403 689.863L774.218 678.339L761.037 681.611L769.777 671.216L762.591 659.692Z" fill="#FFAC33"/>
<path d="M828.141 676.226L845.09 679.907L853.83 664.925L855.566 682.182L872.516 685.864L856.639 692.848L858.376 710.106L846.827 697.165L830.95 704.15L839.689 689.167L828.141 676.226Z" fill="#FFAC33"/>
<path d="M707.519 672.887L716.782 687.552L733.592 683.274L722.507 696.615L731.77 711.279L715.657 704.86L704.573 718.202L705.698 700.893L689.585 694.474L706.394 690.196L707.519 672.887Z" fill="#FFAC33"/>
<path d="M581.807 437.51L588.558 453.487L605.84 452.004L592.73 463.362L599.481 479.339L584.628 470.381L571.519 481.739L575.449 464.845L560.596 455.887L577.878 454.404L581.807 437.51Z" fill="#FFAC33"/>
<path d="M595.699 240.538L600.758 248.118L609.53 245.65L603.884 252.803L608.942 260.384L600.394 257.224L594.748 264.378L595.111 255.272L586.563 252.112L595.336 249.644L595.699 240.538Z" fill="#FFCC4D"/>
<path d="M660.243 285.595L668.685 288.733L674.278 281.674L673.902 290.673L682.344 293.811L673.67 296.234L673.294 305.232L668.309 297.731L659.635 300.155L665.228 293.096L660.243 285.595Z" fill="#FFAC33"/>
<path d="M472.056 321.568L479.778 325.516L485.919 319.393L484.55 327.956L492.272 331.905L483.704 333.249L482.336 341.813L478.409 334.08L469.842 335.425L475.983 329.301L472.056 321.568Z" fill="#FFAC33"/>
<path d="M566.019 306.005L592.995 327.281L621.566 308.199L609.668 340.43L636.644 361.705L602.314 360.349L590.416 392.58L581.097 359.511L546.767 358.155L575.338 339.074L566.019 306.005Z" fill="#FFAC33"/>
<path d="M567.412 160.301L584.932 170.631L600.171 157.161L595.76 177.016L613.281 187.346L593.034 189.287L588.624 209.142L580.522 190.486L560.275 192.427L575.514 178.956L567.412 160.301Z" fill="#FFCC4D"/>
<path d="M880.631 261.919L898.151 272.249L913.39 258.779L908.979 278.634L926.5 288.964L906.253 290.905L901.843 310.76L893.741 292.104L873.494 294.045L888.733 280.574L880.631 261.919Z" fill="#FFAC33"/>
<path d="M502.479 481.214L506.357 490.332L516.227 489.461L508.754 495.967L512.632 505.085L504.135 499.988L496.662 506.494L498.884 496.838L490.387 491.741L500.257 490.87L502.479 481.214Z" fill="#FFAC33"/>
<path d="M660.218 508.345L677.739 518.675L692.977 505.204L688.567 525.059L706.087 535.39L685.841 537.33L681.43 557.185L673.328 538.53L653.082 540.471L668.321 527L660.218 508.345Z" fill="#FFAC33"/>
<path d="M482.795 196.687L485.874 209.915L499.405 211.074L487.777 218.09L490.856 231.317L480.59 222.426L468.962 229.441L474.246 216.93L463.98 208.039L477.511 209.198L482.795 196.687Z" fill="#FFAC33"/>
<path d="M498.649 385.735L505.251 410.059L530.424 411.296L509.331 425.092L515.933 449.415L496.295 433.617L475.202 447.412L484.158 423.854L464.52 408.056L489.693 409.294L498.649 385.735Z" fill="#FFCC4D"/>
<path d="M530.605 238.234L537.356 254.211L554.637 252.728L541.528 264.086L548.279 280.063L533.426 271.106L520.317 282.463L524.246 265.569L509.394 256.611L526.675 255.128L530.605 238.234Z" fill="#FFAC33"/>
<path d="M535.672 618.155L537.831 627.009L546.918 627.692L539.165 632.481L541.323 641.335L534.373 635.441L526.619 640.23L530.077 631.798L523.126 625.904L532.214 626.587L535.672 618.155Z" fill="#FFCC4D"/>
<path d="M602.026 618.729L608.884 624.567L616.555 619.848L613.123 628.174L619.981 634.012L611.001 633.32L607.568 641.647L605.451 632.893L596.472 632.201L604.143 627.483L602.026 618.729Z" fill="#FFAC33"/>
<path d="M499.214 673.246L505.118 679.598L512.984 675.946L508.767 683.524L514.672 689.876L506.161 688.208L501.944 695.786L500.901 687.176L492.391 685.508L500.257 681.855L499.214 673.246Z" fill="#FFAC33"/>
<path d="M695.898 590.233L689.351 606.295L702.604 617.485L685.305 616.222L678.757 632.284L674.613 615.441L657.314 614.178L672.052 605.032L667.908 588.189L681.161 599.379L695.898 590.233Z" fill="#FFAC33"/>
<path d="M577.622 663.574L590.548 679.277L609.477 671.835L598.538 688.981L611.465 704.684L591.777 699.579L580.837 716.725L579.609 696.423L559.921 691.318L578.85 683.876L577.622 663.574Z" fill="#FFAC33"/>
<path d="M474.128 526.12L472.494 539.603L484.812 545.323L471.485 547.935L469.851 561.417L463.248 549.55L449.921 552.162L459.167 542.215L452.564 530.347L464.882 536.067L474.128 526.12Z" fill="#FFCC4D"/>
<path d="M613.231 522.23L596.017 556.659L623.442 583.67L585.378 577.938L568.165 612.367L561.854 574.395L523.79 568.663L557.954 550.927L551.643 512.955L579.068 539.966L613.231 522.23Z" fill="#FFAC33"/>
<path d="M475.297 593.713L476.172 611.036L492.918 615.556L476.713 621.742L477.588 639.065L466.698 625.565L450.493 631.75L459.967 617.221L449.077 603.721L465.823 608.242L475.297 593.713Z" fill="#FFAC33"/>
<path d="M447.001 476.41L435.266 489.183L443.788 504.29L428.014 497.077L416.279 509.85L418.265 492.619L402.491 485.406L419.492 481.97L421.478 464.739L430 479.846L447.001 476.41Z" fill="#FFAC33"/>
<path d="M859.901 227.244L844.742 235.675L848.076 252.696L835.374 240.885L820.215 249.315L827.524 233.585L814.822 221.773L832.04 223.863L839.349 208.133L842.682 225.155L859.901 227.244Z" fill="#FFCC4D"/>
<path d="M807.918 153.077L799.27 157.913L801.197 167.632L793.926 160.902L785.278 165.738L789.432 156.743L782.16 150.013L791.999 151.183L796.152 142.188L798.079 151.907L807.918 153.077Z" fill="#FFAC33"/>
<path d="M797.91 312.819L789.524 331.349L804.555 345.05L784.341 342.801L775.955 361.33L771.848 341.41L751.634 339.16L769.31 329.099L765.203 309.179L780.234 322.881L797.91 312.819Z" fill="#FFAC33"/>
<path d="M902.431 139L878.959 148.18L880.436 173.34L864.452 153.853L840.98 163.032L854.574 141.809L838.59 122.322L862.975 128.693L876.569 107.47L878.046 132.63L902.431 139Z" fill="#FFAC33"/>
<path d="M675.342 200.805L666.771 203.904L667.07 213.012L661.474 205.818L652.904 208.917L658.016 201.373L652.421 194.179L661.176 196.71L666.288 189.166L666.587 198.274L675.342 200.805Z" fill="#FFCC4D"/>
<path d="M744.925 101.667L731.345 101.493L726.983 114.354L722.952 101.385L709.373 101.211L720.461 93.37L716.431 80.4011L727.314 88.524L738.403 80.6829L734.041 93.5442L744.925 101.667Z" fill="#FFAC33"/>
<path d="M693.149 138.151L676.02 140.885L673.327 158.019L665.434 142.574L648.306 145.307L660.557 133.028L652.664 117.583L668.128 125.439L680.378 113.16L677.685 130.295L693.149 138.151Z" fill="#FFAC33"/>
<path d="M422.143 255.828L438.949 267.284L455.037 254.841L449.335 274.364L466.141 285.821L445.811 286.43L440.109 305.954L433.247 286.807L412.917 287.417L429.006 274.974L422.143 255.828Z" fill="#FFCC4D"/>
<path d="M165.22 393.061L158.333 430.932L192.222 449.186L154.076 454.338L147.188 492.209L130.5 457.522L92.354 462.675L120.187 436.085L103.499 401.397L137.388 419.651L165.22 393.061Z" fill="#FFCC4D"/>
<path d="M326.459 667.674L313.94 635.68L279.643 637.699L306.203 615.906L293.684 583.911L322.618 602.437L349.178 580.644L340.5 613.887L369.434 632.412L335.137 634.432L326.459 667.674Z" fill="#FFCC4D"/>
<path d="M265.548 114.173L272.389 107.005L267.686 98.2843L276.617 102.575L283.458 95.4073L282.137 105.227L291.068 109.518L281.32 111.296L279.999 121.116L275.296 112.395L265.548 114.173Z" fill="#FFAC33"/>
<path d="M288.499 247.549L291.998 239.614L285.532 233.834L294.16 234.709L297.66 226.774L299.493 235.251L308.121 236.127L300.626 240.49L302.459 248.966L295.994 243.186L288.499 247.549Z" fill="#FFAC33"/>
<path d="M366.811 208.475L376.121 190.392L361.8 175.95L381.875 179.216L391.184 161.132L394.282 181.234L414.357 184.5L396.196 193.658L399.294 213.759L384.972 199.317L366.811 208.475Z" fill="#FFAC33"/>
<path d="M318.006 122.452L331.036 118.62L331.417 105.045L339.088 116.252L352.117 112.42L343.829 123.178L351.499 134.386L338.706 129.827L330.418 140.586L330.8 127.01L318.006 122.452Z" fill="#FFCC4D"/>
<path d="M283.078 167.028L299.451 172.754L309.956 158.952L309.57 176.293L325.942 182.019L309.331 187.01L308.945 204.351L299.064 190.095L282.453 195.086L292.958 181.284L283.078 167.028Z" fill="#FFAC33"/>
<path d="M252.239 441.347L245.465 425.38L228.185 426.888L241.278 415.511L234.504 399.543L249.37 408.48L262.463 397.103L258.558 414.003L273.423 422.939L256.144 424.448L252.239 441.347Z" fill="#FFAC33"/>
<path d="M173.65 609.601L177.816 617.706L186.812 616.25L180.39 622.716L184.556 630.822L176.421 626.713L170 633.179L171.394 624.173L163.26 620.064L172.256 618.607L173.65 609.601Z" fill="#FFCC4D"/>
<path d="M232.664 661.692L240.695 665.768L247.053 659.39L245.658 668.287L253.689 672.363L244.796 673.786L243.402 682.683L239.3 674.665L230.407 676.089L236.765 669.71L232.664 661.692Z" fill="#FFAC33"/>
<path d="M41.6101 676.076L48.8338 680.875L55.6302 675.488L53.2984 683.841L60.5221 688.64L51.8572 689.003L49.5254 697.356L46.502 689.228L37.8371 689.592L44.6335 684.204L41.6101 676.076Z" fill="#FFAC33"/>
<path d="M136.732 671.277L161.12 695.477L191.671 679.761L176.192 710.433L200.58 734.633L166.625 729.389L151.146 760.062L145.641 726.149L111.686 720.906L142.238 705.19L136.732 671.277Z" fill="#FFAC33"/>
<path d="M154.652 526.672L170.886 538.924L187.555 527.27L180.92 546.496L197.155 558.748L176.819 558.379L170.184 577.605L164.251 558.15L143.915 557.781L160.584 546.127L154.652 526.672Z" fill="#FFAC33"/>
<path d="M331.504 397.529L327.613 388.417L317.744 389.301L325.208 382.785L321.317 373.673L329.821 378.758L337.285 372.241L335.076 381.9L343.58 386.985L333.712 387.87L331.504 397.529Z" fill="#FFAC33"/>
<path d="M173.726 370.625L156.191 360.32L140.971 373.812L145.354 353.951L127.819 343.646L148.062 341.676L152.444 321.815L160.573 340.459L180.816 338.489L165.597 351.981L173.726 370.625Z" fill="#FFAC33"/>
<path d="M66.4515 553.221L68.0095 566.712L81.3219 569.399L68.9724 575.05L70.5305 588.541L61.3401 578.542L48.9906 584.193L55.6601 572.363L46.4696 562.364L59.782 565.051L66.4515 553.221Z" fill="#FFCC4D"/>
<path d="M60.7487 742.846L64.5473 767.762L89.4174 771.849L66.8951 783.161L70.6937 808.076L52.9755 790.152L30.4532 801.464L42.025 779.074L24.3068 761.15L49.1768 765.236L60.7487 742.846Z" fill="#FFCC4D"/>
<path d="M109.238 599.925L114.132 616.565L131.47 617.053L117.156 626.849L122.051 643.49L108.31 632.904L93.9967 642.701L99.8182 626.362L86.0778 615.776L103.416 616.264L109.238 599.925Z" fill="#FFAC33"/>
<path d="M337.72 59.9622L346.211 56.6533L345.688 47.555L351.459 54.6084L359.951 51.2995L355.026 58.9676L360.797 66.021L351.982 63.7067L347.057 71.3748L346.534 62.2764L337.72 59.9622Z" fill="#FFAC33"/>
<path d="M631.395 26.1702L639.426 30.2461L645.784 23.8676L644.39 32.7651L652.421 36.8409L643.528 38.264L642.133 47.1615L638.032 39.1435L629.139 40.5666L635.497 34.1882L631.395 26.1702Z" fill="#FFCC4D"/>
<path d="M506.21 123.145L511.727 116.453L507.069 109.138L515.137 112.318L520.655 105.627L520.124 114.283L528.193 117.462L519.796 119.633L519.266 128.289L514.607 120.974L506.21 123.145Z" fill="#FFCC4D"/>
<path d="M535.463 35.7553L559.851 59.9549L590.402 44.239L574.923 74.9111L599.311 99.1107L565.357 93.8675L549.878 124.54L544.372 90.627L510.418 85.3838L540.969 69.6679L535.463 35.7553Z" fill="#FFAC33"/>
<path d="M386.565 85.7863L400.145 85.6256L404.189 72.6606L408.538 85.5262L422.118 85.3655L411.226 93.4776L415.576 106.343L404.495 98.4912L393.603 106.603L397.646 93.6384L386.565 85.7863Z" fill="#FFAC33"/>
<path d="M459.48 107.324L463.279 132.24L488.149 136.327L465.626 147.639L469.425 172.554L451.707 154.63L429.185 165.942L440.756 143.552L423.038 125.628L447.908 129.714L459.48 107.324Z" fill="#FFAC33"/>
<path d="M437.427 48.0363L454.482 44.8814L456.752 27.6855L465.023 42.9316L482.079 39.7767L470.135 52.3542L478.406 67.6003L462.753 60.1275L450.809 72.7049L453.079 55.509L437.427 48.0363Z" fill="#FFCC4D"/>
<path d="M188.29 248.95L195.486 254.542L203.028 249.427L199.933 257.998L207.129 263.591L198.021 263.296L194.926 271.868L192.391 263.114L183.283 262.819L190.825 257.704L188.29 248.95Z" fill="#FFAC33"/>
<path d="M166.781 190.202L175.782 190.51L178.857 182.045L181.345 190.7L190.346 191.008L182.883 196.05L185.371 204.705L178.271 199.165L170.808 204.207L173.882 195.742L166.781 190.202Z" fill="#FFAC33"/>
<path d="M120.154 296.824L128.728 298.128L132.618 290.377L134.027 298.934L142.601 300.239L134.898 304.223L136.307 312.78L130.137 306.686L122.434 310.67L126.324 302.919L120.154 296.824Z" fill="#FFCC4D"/>
<path d="M222.586 109.518L227.444 126.169L244.781 126.693L230.447 136.459L235.306 153.11L221.588 142.495L207.254 152.261L213.11 135.935L199.392 125.32L216.729 125.844L222.586 109.518Z" fill="#FFCC4D"/>
<path d="M703.26 315.717L708.119 332.368L725.456 332.892L711.121 342.659L715.98 359.309L702.262 348.694L687.928 358.461L693.784 342.134L680.066 331.519L697.404 332.044L703.26 315.717Z" fill="#FFCC4D"/>
<path d="M209.922 206.954L229.809 211.215L240.007 193.617L242.1 213.848L261.988 218.109L243.394 226.352L245.487 246.583L231.902 231.446L213.308 239.688L223.506 222.091L209.922 206.954Z" fill="#FFAC33"/>
<path d="M359.79 352.582L361.405 339.098L349.079 333.395L362.402 330.764L364.017 317.279L370.637 329.137L383.96 326.506L374.728 336.466L381.348 348.324L369.022 342.622L359.79 352.582Z" fill="#FFAC33"/>
<path d="M220.693 356.672L237.858 322.218L210.394 295.247L248.466 300.925L265.63 266.471L271.995 304.433L310.067 310.111L275.929 327.896L282.295 365.858L254.831 338.887L220.693 356.672Z" fill="#FFCC4D"/>
<path d="M358.525 284.992L357.624 267.67L340.872 263.173L357.068 256.964L356.168 239.643L367.078 253.127L383.273 246.918L373.82 261.461L384.73 274.945L367.978 270.449L358.525 284.992Z" fill="#FFAC33"/>
<path d="M386.989 402.254L398.705 389.464L390.162 374.369L405.946 381.559L417.662 368.769L415.701 386.003L431.486 393.194L414.489 396.654L412.529 413.888L403.985 398.793L386.989 402.254Z" fill="#FFCC4D"/>
<path d="M394.424 546.79L385.283 550.613L386.094 560.488L379.633 552.976L370.493 556.8L375.64 548.333L369.179 540.821L378.822 543.101L383.97 534.635L384.781 544.51L394.424 546.79Z" fill="#FFAC33"/>
<path d="M366.351 704.364L355.916 721.822L369.296 737.141L349.467 732.612L339.033 750.07L337.213 729.812L317.385 725.283L336.088 717.293L334.268 697.035L347.648 712.354L366.351 704.364Z" fill="#FFCC4D"/>
<path d="M257.287 579.163L248.421 581.269L247.683 590.353L242.941 582.571L234.074 584.676L240.009 577.761L235.267 569.979L243.678 573.487L249.613 566.572L248.876 575.655L257.287 579.163Z" fill="#FFAC33"/>
<path d="M337.672 488.563L324.2 486.849L318.406 499.132L315.873 485.789L302.401 484.075L314.308 477.543L311.775 464.2L321.667 473.506L333.574 466.974L327.78 479.257L337.672 488.563Z" fill="#FFAC33"/>
<path d="M282.09 518.935L264.762 519.707L260.141 536.426L254.052 520.184L236.724 520.956L250.289 510.147L244.201 493.905L258.673 503.466L272.238 492.656L267.617 509.375L282.09 518.935Z" fill="#FFCC4D"/>
<path d="M806.728 97.4037L792.767 87.111L778.664 97.2082L784.138 80.7498L770.177 70.4571L787.522 70.5779L792.997 54.1195L798.242 70.6526L815.586 70.7735L801.483 80.8706L806.728 97.4037Z" fill="#FFCC4D"/>
</g>
</svg>
