<svg width="45" height="43" viewBox="0 0 45 43" fill="none" xmlns="http://www.w3.org/2000/svg">
<path d="M43.6345 19.4576L31.9902 15.3178L27.642 1.63016C27.4745 1.10231 26.9655 0.740356 26.3911 0.740356C25.8167 0.740356 25.3077 1.10231 25.1402 1.63016L20.7933 15.3178L9.14772 19.4576C8.63348 19.6411 8.29327 20.1099 8.29327 20.6365C8.29327 21.1618 8.63348 21.6331 9.14772 21.8154L20.7868 25.954L25.1362 40.0589C25.3011 40.5917 25.8114 40.9575 26.3911 40.9575C26.9694 40.9575 27.4811 40.5917 27.6459 40.0576L31.9954 25.9527L43.6358 21.8141C44.1474 21.6331 44.4889 21.1631 44.4889 20.6365C44.4889 20.1112 44.1474 19.6411 43.6345 19.4576Z" fill="#FFAC33"/>
<path d="M17.4645 33.2836L14.4366 32.2078L13.259 28.0604C13.1046 27.5124 12.5877 27.1329 11.9976 27.1329C11.4075 27.1329 10.8906 27.5124 10.7349 28.0591L9.55726 32.2065L6.53071 33.2823C6.01647 33.4646 5.67626 33.9358 5.67626 34.4612C5.67626 34.9865 6.01647 35.4578 6.53071 35.64L9.54156 36.7121L10.7284 41.2642C10.8749 41.8222 11.397 42.2143 11.9976 42.2143C12.5982 42.2143 13.1203 41.8222 13.2668 41.2629L14.4537 36.7108L17.4645 35.6388C17.9787 35.4578 18.319 34.9865 18.319 34.4612C18.319 33.9358 17.9787 33.4646 17.4645 33.2836ZM11.7882 6.05785L8.69496 4.95817L7.54872 1.98587C7.35899 1.49196 6.86961 1.16519 6.32135 1.16519C5.7744 1.16519 5.28502 1.49196 5.09398 1.98587L3.94904 4.95817L0.854448 6.05785C0.340209 6.24134 0 6.71138 0 7.23672C0 7.76205 0.340209 8.23335 0.854448 8.41558L3.94904 9.51527L5.09398 12.4876C5.28502 12.9815 5.7744 13.3082 6.32135 13.3082C6.8683 13.3082 7.35768 12.9815 7.54872 12.4876L8.69365 9.51527L11.7882 8.41558C12.3025 8.23209 12.6427 7.76205 12.6427 7.23672C12.6427 6.71138 12.3025 6.24134 11.7882 6.05785Z" fill="#FFCC4D"/>
</svg>
