<svg width="69" height="69" viewBox="0 0 69 69" fill="none" xmlns="http://www.w3.org/2000/svg">
<path d="M29.5459 16.1553L19.048 4.04228C17.8368 2.64481 15.6192 2.65384 14.2129 4.06202L5.57984 12.7065C3.01052 15.2792 2.27509 19.1002 3.75973 22.163C12.7019 40.6108 27.4213 55.3499 45.8447 64.3039C48.9035 65.7904 52.7196 65.054 55.2887 62.4814L64.0038 53.7545C65.4158 52.341 65.4183 50.1101 64.01 48.9011L51.8435 38.4587C50.5703 37.3657 48.5948 37.5091 47.3187 38.787L43.0865 43.0248C42.6158 43.4962 41.9082 43.6088 41.3701 43.2985C34.44 39.3028 28.7276 33.5829 24.7371 26.6436C24.4272 26.1047 24.5399 25.3962 25.0105 24.925L29.2297 20.7001C30.5113 19.4168 30.6497 17.4289 29.5459 16.1553Z" stroke="#FFCC4D" stroke-width="6" stroke-linecap="round" stroke-linejoin="round"/>
</svg>
