<svg width="69" height="58" viewBox="0 0 69 58" fill="none" xmlns="http://www.w3.org/2000/svg">
<path d="M65.0645 3.59282C62.363 5.49842 59.3718 6.9559 56.2062 7.90913C54.5072 5.95553 52.2491 4.57088 49.7375 3.94243C47.2259 3.31398 44.5818 3.47207 42.1629 4.3953C39.7441 5.31853 37.6671 6.96236 36.2129 9.10448C34.7588 11.2466 33.9975 13.7836 34.0323 16.3725V19.1936C29.0745 19.3221 24.1619 18.2226 19.7321 15.9929C15.3022 13.7632 11.4924 10.4725 8.64223 6.41393C8.64223 6.41393 -2.64223 31.804 22.7478 43.0884C16.9378 47.0322 10.0166 49.0097 3 48.7306C28.39 62.8362 59.4223 48.7306 59.4223 16.2878C59.4197 15.502 59.3441 14.7181 59.1966 13.9463C62.0758 11.1068 64.1077 7.52182 65.0645 3.59282Z" stroke="#FFCC4D" stroke-width="6" stroke-linecap="round" stroke-linejoin="round"/>
</svg>
